<mxfile host="app.diagrams.net" agent="Mozilla/5.0 (Windows NT 10.0; Win64; x64) AppleWebKit/537.36 (KHTML, like Gecko) Chrome/133.0.0.0 Safari/537.36" version="26.0.16">
  <diagram name="1 oldal" id="varA_XbOIuaOSZ4C0yLg">
    <mxGraphModel dx="1195" dy="627" grid="1" gridSize="10" guides="1" tooltips="1" connect="1" arrows="1" fold="1" page="1" pageScale="1" pageWidth="827" pageHeight="1169" math="0" shadow="0">
      <root>
        <mxCell id="0" />
        <mxCell id="1" parent="0" />
        <mxCell id="wZSMS45utBNistkPgbad-1" value="&lt;p style=&quot;margin: 4px 0px 0px;&quot;&gt;&lt;b&gt;&amp;nbsp;7&amp;nbsp; &amp;nbsp; &amp;nbsp; &lt;/b&gt;Módosító felület&lt;/p&gt;&lt;hr size=&quot;1&quot; style=&quot;border-style:solid;&quot;&gt;&amp;nbsp;&lt;br&gt;&lt;div style=&quot;height:2px;&quot;&gt;&lt;/div&gt;" style="verticalAlign=top;align=left;overflow=fill;html=1;whiteSpace=wrap;" vertex="1" parent="1">
          <mxGeometry x="320" y="280" width="180" height="520" as="geometry" />
        </mxCell>
        <mxCell id="wZSMS45utBNistkPgbad-12" style="edgeStyle=orthogonalEdgeStyle;rounded=0;orthogonalLoop=1;jettySize=auto;html=1;exitX=1;exitY=0.5;exitDx=0;exitDy=0;entryX=0.008;entryY=0.273;entryDx=0;entryDy=0;startArrow=classic;startFill=1;entryPerimeter=0;" edge="1" parent="1" source="wZSMS45utBNistkPgbad-2" target="wZSMS45utBNistkPgbad-9">
          <mxGeometry relative="1" as="geometry" />
        </mxCell>
        <mxCell id="wZSMS45utBNistkPgbad-2" value="&lt;p style=&quot;margin: 4px 0px 0px;&quot;&gt;&lt;b&gt;&amp;nbsp;7.1&amp;nbsp; &amp;nbsp;&lt;/b&gt;&lt;span style=&quot;background-color: transparent; color: light-dark(rgb(0, 0, 0), rgb(255, 255, 255));&quot;&gt;Módosító felület&lt;/span&gt;&lt;/p&gt;&lt;hr size=&quot;1&quot; style=&quot;border-style:solid;&quot;&gt;&lt;div style=&quot;height:2px;&quot;&gt;&amp;nbsp;Városok kezelése&lt;/div&gt;" style="verticalAlign=top;align=left;overflow=fill;html=1;whiteSpace=wrap;" vertex="1" parent="1">
          <mxGeometry x="340" y="320" width="140" height="60" as="geometry" />
        </mxCell>
        <mxCell id="wZSMS45utBNistkPgbad-3" value="&lt;p style=&quot;margin: 4px 0px 0px;&quot;&gt;&lt;b&gt;&amp;nbsp;7.2&amp;nbsp; &amp;nbsp;&lt;/b&gt;&lt;span style=&quot;background-color: transparent; color: light-dark(rgb(0, 0, 0), rgb(255, 255, 255));&quot;&gt;Módosító felület&lt;/span&gt;&lt;/p&gt;&lt;hr size=&quot;1&quot; style=&quot;border-style:solid;&quot;&gt;&lt;div style=&quot;height:2px;&quot;&gt;&amp;nbsp;Állomások kezelése&lt;/div&gt;" style="verticalAlign=top;align=left;overflow=fill;html=1;whiteSpace=wrap;" vertex="1" parent="1">
          <mxGeometry x="340" y="400" width="140" height="60" as="geometry" />
        </mxCell>
        <mxCell id="wZSMS45utBNistkPgbad-16" style="edgeStyle=orthogonalEdgeStyle;rounded=0;orthogonalLoop=1;jettySize=auto;html=1;exitX=1;exitY=0.5;exitDx=0;exitDy=0;entryX=0;entryY=0.5;entryDx=0;entryDy=0;startArrow=classic;startFill=1;" edge="1" parent="1" source="wZSMS45utBNistkPgbad-4" target="wZSMS45utBNistkPgbad-10">
          <mxGeometry relative="1" as="geometry" />
        </mxCell>
        <mxCell id="wZSMS45utBNistkPgbad-4" value="&lt;p style=&quot;margin: 4px 0px 0px;&quot;&gt;&lt;b&gt;&amp;nbsp;7.3&amp;nbsp; &amp;nbsp;&lt;/b&gt;&lt;span style=&quot;background-color: transparent; color: light-dark(rgb(0, 0, 0), rgb(255, 255, 255));&quot;&gt;Módosító felület&lt;/span&gt;&lt;/p&gt;&lt;hr size=&quot;1&quot; style=&quot;border-style:solid;&quot;&gt;&lt;div style=&quot;height:2px;&quot;&gt;&amp;nbsp;Vonatok kezelése&lt;/div&gt;" style="verticalAlign=top;align=left;overflow=fill;html=1;whiteSpace=wrap;" vertex="1" parent="1">
          <mxGeometry x="340" y="480" width="140" height="60" as="geometry" />
        </mxCell>
        <mxCell id="wZSMS45utBNistkPgbad-5" value="" style="line;strokeWidth=1;direction=south;html=1;perimeter=backbonePerimeter;points=[];outlineConnect=0;" vertex="1" parent="1">
          <mxGeometry x="360" y="320" width="10" height="24" as="geometry" />
        </mxCell>
        <mxCell id="wZSMS45utBNistkPgbad-6" value="" style="line;strokeWidth=1;direction=south;html=1;perimeter=backbonePerimeter;points=[];outlineConnect=0;" vertex="1" parent="1">
          <mxGeometry x="360" y="400" width="10" height="24" as="geometry" />
        </mxCell>
        <mxCell id="wZSMS45utBNistkPgbad-7" value="" style="line;strokeWidth=1;direction=south;html=1;perimeter=backbonePerimeter;points=[];outlineConnect=0;" vertex="1" parent="1">
          <mxGeometry x="360" y="480" width="10" height="24" as="geometry" />
        </mxCell>
        <mxCell id="wZSMS45utBNistkPgbad-11" style="edgeStyle=orthogonalEdgeStyle;rounded=0;orthogonalLoop=1;jettySize=auto;html=1;exitX=0.5;exitY=0;exitDx=0;exitDy=0;entryX=0;entryY=0.5;entryDx=0;entryDy=0;" edge="1" parent="1" source="wZSMS45utBNistkPgbad-8" target="wZSMS45utBNistkPgbad-2">
          <mxGeometry relative="1" as="geometry">
            <Array as="points">
              <mxPoint x="80" y="350" />
            </Array>
          </mxGeometry>
        </mxCell>
        <mxCell id="wZSMS45utBNistkPgbad-17" value="Módosított adatok" style="edgeLabel;html=1;align=center;verticalAlign=middle;resizable=0;points=[];" vertex="1" connectable="0" parent="wZSMS45utBNistkPgbad-11">
          <mxGeometry x="0.1518" y="1" relative="1" as="geometry">
            <mxPoint x="85" y="71" as="offset" />
          </mxGeometry>
        </mxCell>
        <mxCell id="wZSMS45utBNistkPgbad-13" style="edgeStyle=orthogonalEdgeStyle;rounded=0;orthogonalLoop=1;jettySize=auto;html=1;exitX=0.755;exitY=0.086;exitDx=0;exitDy=0;entryX=0;entryY=0.5;entryDx=0;entryDy=0;exitPerimeter=0;" edge="1" parent="1" source="wZSMS45utBNistkPgbad-8" target="wZSMS45utBNistkPgbad-3">
          <mxGeometry relative="1" as="geometry">
            <Array as="points">
              <mxPoint x="105" y="430" />
            </Array>
          </mxGeometry>
        </mxCell>
        <mxCell id="wZSMS45utBNistkPgbad-18" value="Módosított adatok" style="edgeLabel;html=1;align=center;verticalAlign=middle;resizable=0;points=[];" vertex="1" connectable="0" parent="wZSMS45utBNistkPgbad-13">
          <mxGeometry x="-0.2314" y="2" relative="1" as="geometry">
            <mxPoint x="106" y="76" as="offset" />
          </mxGeometry>
        </mxCell>
        <mxCell id="wZSMS45utBNistkPgbad-15" style="edgeStyle=orthogonalEdgeStyle;rounded=0;orthogonalLoop=1;jettySize=auto;html=1;exitX=0.955;exitY=0.265;exitDx=0;exitDy=0;entryX=0;entryY=0.5;entryDx=0;entryDy=0;exitPerimeter=0;" edge="1" parent="1" source="wZSMS45utBNistkPgbad-8" target="wZSMS45utBNistkPgbad-4">
          <mxGeometry relative="1" as="geometry">
            <Array as="points">
              <mxPoint x="125" y="510" />
            </Array>
          </mxGeometry>
        </mxCell>
        <mxCell id="wZSMS45utBNistkPgbad-19" value="Módosított adatok" style="edgeLabel;html=1;align=center;verticalAlign=middle;resizable=0;points=[];" vertex="1" connectable="0" parent="wZSMS45utBNistkPgbad-15">
          <mxGeometry x="0.0122" relative="1" as="geometry">
            <mxPoint x="20" y="75" as="offset" />
          </mxGeometry>
        </mxCell>
        <mxCell id="wZSMS45utBNistkPgbad-25" style="edgeStyle=orthogonalEdgeStyle;rounded=0;orthogonalLoop=1;jettySize=auto;html=1;exitX=0.5;exitY=1;exitDx=0;exitDy=0;entryX=0;entryY=0.5;entryDx=0;entryDy=0;" edge="1" parent="1" source="wZSMS45utBNistkPgbad-8" target="wZSMS45utBNistkPgbad-22">
          <mxGeometry relative="1" as="geometry" />
        </mxCell>
        <mxCell id="wZSMS45utBNistkPgbad-8" value="Admin" style="shape=ellipse;html=1;dashed=0;whiteSpace=wrap;perimeter=ellipsePerimeter;" vertex="1" parent="1">
          <mxGeometry x="30" y="525" width="100" height="50" as="geometry" />
        </mxCell>
        <mxCell id="wZSMS45utBNistkPgbad-9" value="D1&amp;nbsp; &amp;nbsp; &amp;nbsp;Állomások" style="html=1;dashed=0;whiteSpace=wrap;shape=mxgraph.dfd.dataStoreID;align=left;spacingLeft=3;points=[[0,0],[0.5,0],[1,0],[0,0.5],[1,0.5],[0,1],[0.5,1],[1,1]];" vertex="1" parent="1">
          <mxGeometry x="549.9999999999999" y="370" width="100" height="30" as="geometry" />
        </mxCell>
        <mxCell id="wZSMS45utBNistkPgbad-10" value="D4&amp;nbsp; &amp;nbsp; &amp;nbsp;Vonatok" style="html=1;dashed=0;whiteSpace=wrap;shape=mxgraph.dfd.dataStoreID;align=left;spacingLeft=3;points=[[0,0],[0.5,0],[1,0],[0,0.5],[1,0.5],[0,1],[0.5,1],[1,1]];" vertex="1" parent="1">
          <mxGeometry x="549.9999999999999" y="495" width="100" height="30" as="geometry" />
        </mxCell>
        <mxCell id="wZSMS45utBNistkPgbad-14" style="edgeStyle=orthogonalEdgeStyle;rounded=0;orthogonalLoop=1;jettySize=auto;html=1;exitX=1;exitY=0.5;exitDx=0;exitDy=0;entryX=0.008;entryY=0.813;entryDx=0;entryDy=0;entryPerimeter=0;startArrow=classic;startFill=1;" edge="1" parent="1" source="wZSMS45utBNistkPgbad-3" target="wZSMS45utBNistkPgbad-9">
          <mxGeometry relative="1" as="geometry" />
        </mxCell>
        <mxCell id="wZSMS45utBNistkPgbad-30" style="edgeStyle=orthogonalEdgeStyle;rounded=0;orthogonalLoop=1;jettySize=auto;html=1;exitX=1;exitY=0.5;exitDx=0;exitDy=0;entryX=0;entryY=0.5;entryDx=0;entryDy=0;startArrow=classic;startFill=1;" edge="1" parent="1" source="wZSMS45utBNistkPgbad-20" target="wZSMS45utBNistkPgbad-29">
          <mxGeometry relative="1" as="geometry" />
        </mxCell>
        <mxCell id="wZSMS45utBNistkPgbad-20" value="&lt;p style=&quot;margin: 4px 0px 0px;&quot;&gt;&lt;b&gt;&amp;nbsp;7.4&amp;nbsp; &amp;nbsp;&lt;/b&gt;&lt;span style=&quot;background-color: transparent; color: light-dark(rgb(0, 0, 0), rgb(255, 255, 255));&quot;&gt;Módosító felület&lt;/span&gt;&lt;/p&gt;&lt;hr size=&quot;1&quot; style=&quot;border-style:solid;&quot;&gt;&lt;div style=&quot;height:2px;&quot;&gt;&amp;nbsp;Jegyek kezelése&lt;/div&gt;" style="verticalAlign=top;align=left;overflow=fill;html=1;whiteSpace=wrap;" vertex="1" parent="1">
          <mxGeometry x="340" y="560" width="140" height="60" as="geometry" />
        </mxCell>
        <mxCell id="wZSMS45utBNistkPgbad-32" style="edgeStyle=orthogonalEdgeStyle;rounded=0;orthogonalLoop=1;jettySize=auto;html=1;exitX=1;exitY=0.5;exitDx=0;exitDy=0;entryX=0;entryY=0.5;entryDx=0;entryDy=0;startArrow=classic;startFill=1;" edge="1" parent="1" source="wZSMS45utBNistkPgbad-21" target="wZSMS45utBNistkPgbad-31">
          <mxGeometry relative="1" as="geometry" />
        </mxCell>
        <mxCell id="wZSMS45utBNistkPgbad-21" value="&lt;p style=&quot;margin: 4px 0px 0px;&quot;&gt;&lt;b&gt;&amp;nbsp;7.5&amp;nbsp; &amp;nbsp;&lt;/b&gt;&lt;span style=&quot;background-color: transparent; color: light-dark(rgb(0, 0, 0), rgb(255, 255, 255));&quot;&gt;Módosító felület&lt;/span&gt;&lt;/p&gt;&lt;hr size=&quot;1&quot; style=&quot;border-style:solid;&quot;&gt;&lt;div style=&quot;height:2px;&quot;&gt;&amp;nbsp;Tagok kezelése&lt;/div&gt;" style="verticalAlign=top;align=left;overflow=fill;html=1;whiteSpace=wrap;" vertex="1" parent="1">
          <mxGeometry x="340" y="640" width="140" height="60" as="geometry" />
        </mxCell>
        <mxCell id="wZSMS45utBNistkPgbad-22" value="&lt;p style=&quot;margin: 4px 0px 0px;&quot;&gt;&lt;b&gt;&amp;nbsp;7.6&lt;/b&gt;&lt;/p&gt;&lt;hr size=&quot;1&quot; style=&quot;border-style:solid;&quot;&gt;&lt;div style=&quot;height:2px;&quot;&gt;&amp;nbsp;Menetrendek kezelése&lt;/div&gt;" style="verticalAlign=top;align=left;overflow=fill;html=1;whiteSpace=wrap;" vertex="1" parent="1">
          <mxGeometry x="340" y="720" width="140" height="60" as="geometry" />
        </mxCell>
        <mxCell id="wZSMS45utBNistkPgbad-23" style="edgeStyle=orthogonalEdgeStyle;rounded=0;orthogonalLoop=1;jettySize=auto;html=1;exitX=0;exitY=0.5;exitDx=0;exitDy=0;entryX=0.927;entryY=0.748;entryDx=0;entryDy=0;entryPerimeter=0;startArrow=classic;startFill=1;endArrow=none;" edge="1" parent="1" source="wZSMS45utBNistkPgbad-20" target="wZSMS45utBNistkPgbad-8">
          <mxGeometry relative="1" as="geometry">
            <Array as="points">
              <mxPoint x="123" y="590" />
            </Array>
          </mxGeometry>
        </mxCell>
        <mxCell id="wZSMS45utBNistkPgbad-24" style="edgeStyle=orthogonalEdgeStyle;rounded=0;orthogonalLoop=1;jettySize=auto;html=1;exitX=0;exitY=0.5;exitDx=0;exitDy=0;entryX=0.755;entryY=0.954;entryDx=0;entryDy=0;entryPerimeter=0;startArrow=classic;startFill=1;endArrow=none;" edge="1" parent="1" source="wZSMS45utBNistkPgbad-21" target="wZSMS45utBNistkPgbad-8">
          <mxGeometry relative="1" as="geometry" />
        </mxCell>
        <mxCell id="wZSMS45utBNistkPgbad-26" value="Módosított adatok" style="edgeLabel;html=1;align=center;verticalAlign=middle;resizable=0;points=[];" vertex="1" connectable="0" parent="1">
          <mxGeometry x="240.00365639875312" y="340.00448418587075" as="geometry" />
        </mxCell>
        <mxCell id="wZSMS45utBNistkPgbad-27" value="Módosított adatok" style="edgeLabel;html=1;align=center;verticalAlign=middle;resizable=0;points=[];" vertex="1" connectable="0" parent="1">
          <mxGeometry x="240.00365639875312" y="660.0044841858708" as="geometry" />
        </mxCell>
        <mxCell id="wZSMS45utBNistkPgbad-28" value="Módosított adatok" style="edgeLabel;html=1;align=center;verticalAlign=middle;resizable=0;points=[];" vertex="1" connectable="0" parent="1">
          <mxGeometry x="240.00365639875312" y="740.0044841858708" as="geometry" />
        </mxCell>
        <mxCell id="wZSMS45utBNistkPgbad-29" value="D5&amp;nbsp; &amp;nbsp; &amp;nbsp;Jegyek" style="html=1;dashed=0;whiteSpace=wrap;shape=mxgraph.dfd.dataStoreID;align=left;spacingLeft=3;points=[[0,0],[0.5,0],[1,0],[0,0.5],[1,0.5],[0,1],[0.5,1],[1,1]];" vertex="1" parent="1">
          <mxGeometry x="549.9999999999999" y="575" width="100" height="30" as="geometry" />
        </mxCell>
        <mxCell id="wZSMS45utBNistkPgbad-31" value="D2&amp;nbsp; &amp;nbsp; &amp;nbsp;Tagok" style="html=1;dashed=0;whiteSpace=wrap;shape=mxgraph.dfd.dataStoreID;align=left;spacingLeft=3;points=[[0,0],[0.5,0],[1,0],[0,0.5],[1,0.5],[0,1],[0.5,1],[1,1]];" vertex="1" parent="1">
          <mxGeometry x="549.9999999999999" y="655" width="100" height="30" as="geometry" />
        </mxCell>
        <mxCell id="wZSMS45utBNistkPgbad-34" style="edgeStyle=orthogonalEdgeStyle;rounded=0;orthogonalLoop=1;jettySize=auto;html=1;exitX=0;exitY=0.5;exitDx=0;exitDy=0;entryX=1;entryY=0.5;entryDx=0;entryDy=0;startArrow=classic;startFill=1;" edge="1" parent="1" source="wZSMS45utBNistkPgbad-33" target="wZSMS45utBNistkPgbad-22">
          <mxGeometry relative="1" as="geometry" />
        </mxCell>
        <mxCell id="wZSMS45utBNistkPgbad-33" value="D3&amp;nbsp; &amp;nbsp; &amp;nbsp;Menetrend" style="html=1;dashed=0;whiteSpace=wrap;shape=mxgraph.dfd.dataStoreID;align=left;spacingLeft=3;points=[[0,0],[0.5,0],[1,0],[0,0.5],[1,0.5],[0,1],[0.5,1],[1,1]];" vertex="1" parent="1">
          <mxGeometry x="549.9999999999999" y="735" width="100" height="30" as="geometry" />
        </mxCell>
        <mxCell id="wZSMS45utBNistkPgbad-35" value="" style="line;strokeWidth=1;direction=south;html=1;perimeter=backbonePerimeter;points=[];outlineConnect=0;" vertex="1" parent="1">
          <mxGeometry x="360" y="560" width="10" height="24" as="geometry" />
        </mxCell>
        <mxCell id="wZSMS45utBNistkPgbad-36" value="" style="line;strokeWidth=1;direction=south;html=1;perimeter=backbonePerimeter;points=[];outlineConnect=0;" vertex="1" parent="1">
          <mxGeometry x="360" y="640" width="10" height="24" as="geometry" />
        </mxCell>
        <mxCell id="wZSMS45utBNistkPgbad-37" value="" style="line;strokeWidth=1;direction=south;html=1;perimeter=backbonePerimeter;points=[];outlineConnect=0;" vertex="1" parent="1">
          <mxGeometry x="360" y="720" width="10" height="24" as="geometry" />
        </mxCell>
        <mxCell id="wZSMS45utBNistkPgbad-38" value="" style="line;strokeWidth=1;direction=south;html=1;perimeter=backbonePerimeter;points=[];outlineConnect=0;" vertex="1" parent="1">
          <mxGeometry x="340" y="280" width="10" height="24" as="geometry" />
        </mxCell>
      </root>
    </mxGraphModel>
  </diagram>
</mxfile>
